<svg width="64" height="64" viewBox="0 0 64 64" fill="none" xmlns="http://www.w3.org/2000/svg">
<!-- head -->
<g clip-path="url(#clip0_93_382)">
<circle cx="18" cy="37" r="5" fill="#68463C"/>
<path d="M18 41H35V65.8705C35 65.8705 31.3571 68 26.5 68C21.6429 68 18 64.5226 18 64.5226V41Z" fill="#68463C"/>
<path d="M34.8114 53.1122C34.8114 58.4968 33.9402 57.9871 28.2776 57.9871C22.6151 57.9871 20.0016 53.6219 20.0016 48.2373C20.0016 42.8526 19.7867 38 24.3574 38C37.2799 38.4762 34.8114 47.7275 34.8114 53.1122Z" fill="#553329"/>
<path d="M45.8874 36.0992C45.8874 45.0216 44.5016 55.9932 33.5016 55.9932C22.5015 55.9932 17.43 45.0216 17.43 36.0992C15.0016 25.5 15.5015 13 32.0016 13C48.5016 13 45.8874 27.1767 45.8874 36.0992Z" fill="#836055"/>
<rect x="36" y="41" width="3" height="2" rx="1" fill="#68463C"/>
</g>
<defs>
<clipPath id="clip0_93_382">
<rect width="64" height="64" fill="white"/>
</clipPath>
</defs>

<!-- cloth -->
<g clip-path="url(#clip0_166_32)">
<g clip-path="url(#clip1_166_32)">
<rect x="7" y="60" width="40" height="23" rx="9" fill="#3633E0"/>
<path d="M17 58H36V61C36 61 31 62 26.5 62C22 62 17 61 17 61V58Z" fill="#3633E0"/>
<path d="M17 58H36V60C36 60 33 61.5 26.5 61.5C20 61.5 17 60 17 60V58Z" fill="#362ABC"/>
<path d="M16.5 59C16.5 57.8954 17.3954 57 18.5 57H34.5C35.6046 57 36.5 57.8954 36.5 59C36.5 59 31.5 60 26.5 60C21.5 60 16.5 59 16.5 59Z" fill="#3633E0"/>
</g>
</g>
<defs>
<clipPath id="clip0_166_32">
<rect width="64" height="64" fill="white"/>
</clipPath>
<clipPath id="clip1_166_32">
<rect width="64" height="64" fill="white"/>
</clipPath>
</defs>

<!-- hair -->
<path fill-rule="evenodd" clip-rule="evenodd" d="M28.9668 26.2028C34.5778 28.0656 42.3556 30.6479 50.5018 22.5016C54.5018 18.5016 36.5018 1.50163 22.0018 11.0016C10.6686 12.6806 11.3163 19.4715 11.8161 24.7123C11.9117 25.7142 12.0018 26.6595 12.0018 27.5016C12.0018 28.0345 12.0715 28.4333 12.2022 28.7199C12.0414 29.953 12.0018 31.1869 12.0018 32.0016C12.0018 34.2108 13.7927 36.0016 16.0018 36.0016C18.211 36.0016 20.0018 34.2108 20.0018 32.0016C22.211 32.0016 24.0018 30.2108 24.0018 28.0016C24.0018 27.6556 23.9579 27.3199 23.8753 26.9997C23.9173 27.001 23.9595 27.0016 24.0018 27.0016C25.2256 27.0016 26.3209 26.4521 27.0547 25.5864C27.6592 25.7686 28.2976 25.9806 28.9668 26.2028Z" fill="#1B0B47"/>

<!-- mouth -->
<g clip-path="url(#clip0_159_90)">
<path d="M27.9297 46C27.9297 45.4477 28.3774 45 28.9297 45H38.0725C38.6248 45 39.0725 45.4477 39.0725 46C39.0725 48.7614 36.834 51 34.0725 51H32.9297C30.1683 51 27.9297 48.7614 27.9297 46Z" fill="#66253C"/>
<path fill-rule="evenodd" clip-rule="evenodd" d="M35.7558 50.7081C35.2298 50.8961 34.6631 50.9985 34.0725 50.9985H32.9297C30.2352 50.9985 28.0385 48.8671 27.9336 46.1984C28.6976 45.9125 29.8316 45.9454 30.951 45.9779C31.3066 45.9882 31.6608 45.9985 32.0011 45.9985C34.2103 45.9985 36.0011 47.5655 36.0011 49.4985C36.0011 49.9236 35.9145 50.3311 35.7558 50.7081Z" fill="#B03E67"/>
<path d="M29 45H39V46C39 46.5523 38.5523 47 38 47H30C29.4477 47 29 46.5523 29 46V45Z" fill="white"/>
<path d="M31 45.3C31 45.1343 31.1343 45 31.3 45H32.7C32.8657 45 33 45.1343 33 45.3V47.7C33 47.8657 32.8657 48 32.7 48H31.3C31.1343 48 31 47.8657 31 47.7V45.3Z" fill="#B03E67"/>
</g>
<defs>
<clipPath id="clip0_159_90">
<rect width="64" height="64" fill="white"/>
</clipPath>
</defs>

<!-- eyes -->
<g clip-path="url(#clip0_164_867)">
<path d="M43 37.5C43 38.3284 42.3284 39 41.5 39C40.6716 39 40 38.3284 40 37.5L40 36.2727C40 36.1221 40.1221 36 40.2727 36L42.7273 36C42.8779 36 43 36.1221 43 36.2727L43 37.5Z" fill="#1B0B47"/>
<path d="M33 37.5C33 38.3284 32.3284 39 31.5 39C30.6716 39 30 38.3284 30 37.5L30 36.2727C30 36.1221 30.1221 36 30.2727 36L32.7273 36C32.8779 36 33 36.1221 33 36.2727L33 37.5Z" fill="#1B0B47"/>
<line x1="29.5" y1="36.5" x2="33.5" y2="36.5" stroke="#1B0B47" stroke-linecap="round"/>
<line x1="39.5" y1="36.5" x2="43.5" y2="36.5" stroke="#1B0B47" stroke-linecap="round"/>
</g>
<defs>
<clipPath id="clip0_164_867">
<rect width="64" height="64" rx="32" fill="white"/>
</clipPath>
</defs>

<!-- glass -->
<g clip-path="url(#clip0_1_1040)">
<circle cx="30.2689" cy="36.2689" r="4.26891" stroke="black" stroke-width="2"/>
<circle cx="44.2689" cy="36.2689" r="4.26891" stroke="black" stroke-width="2"/>
<line x1="33.9852" y1="35.1056" x2="40.9852" y2="35.002" stroke="black" stroke-width="2"/>
</g>
<defs>
<clipPath id="clip0_1_1040">
<rect width="64" height="64" rx="32" fill="white"/>
</clipPath>
</defs>

<!-- mustage -->
<g clip-path="url(#clip0_107_269)">
<g clip-path="url(#clip1_107_269)">
<path d="M28 46C28 44.3431 29.3431 43 31 43H40C41.6569 43 43 44.3431 43 46H28Z" fill="#1B0B47"/>
</g>
</g>
<defs>
<clipPath id="clip0_107_269">
<rect width="64" height="64" rx="32" fill="white"/>
</clipPath>
<clipPath id="clip1_107_269">
<rect width="64" height="64" fill="white"/>
</clipPath>
</defs>
</svg>
